<svg xmlns="http://www.w3.org/2000/svg" viewBox="0 0 841.9 595.3">
  <g fill="#61DAFB">
    <path class="st0" d="M135.9,78c-1.1,0-2.2,0.2-3.2,0.7L68.9,11.1h9.5l42.9,45.5c-0.6,1.1-1,2.4-1,3.8c0,4.4,3.6,8,8,8
      c4.4,0,8-3.6,8-8s-3.6-8-8-8c-0.9,0-1.8,0.2-2.7,0.5L86.2,11.1h9.5l20.8,22c-0.6,1.1-1,2.4-1,3.8c0,4.4,3.6,8,8,8c4.4,0,8-3.6,8-8
      s-3.6-8-8-8c-0.9,0-1.8,0.2-2.7,0.5c-7.5-8-15.1-16-22.6-24c-12.5,0-25.1,0-37.6,0C49.3,17.4,38.1,29.2,26.9,41.1v25.1L15.9,54.6
      c0.4-1,0.7-2.1,0.7-3.2c0-4.4-3.6-8-8-8c-4.4,0-8,3.6-8,8c0,4.4,3.6,8,8,8c1.2,0,2.3-0.3,3.3-0.7l101.6,107.7v33.5h-6v-29.5
      c-28-29.7-56-59.4-84-89.1c0.7-1.2,1.1-2.5,1.1-4c0-4.4-3.6-8-8-8c-4.4,0-8,3.6-8,8c0,4.4,3.6,8,8,8c0.9,0,1.7-0.1,2.5-0.4
      l82.8,87.8v9.7l-73.6-78c0.5-1.1,0.8-2.3,0.8-3.5c0-4.4-3.6-8-8-8c-4.4,0-8,3.6-8,8s3.6,8,8,8c1.1,0,2.1-0.2,3-0.6l77.7,82.4v9.4
      H57.9v-12.5c3-1.1,5.1-4,5.1-7.4c0-4.4-3.6-8-8-8c-4.4,0-8,3.6-8,8c0,3.4,2.1,6.3,5.2,7.4v12.4h-8.8V175c3-1.1,5.1-4,5.1-7.4
      c0-4.4-3.6-8-8-8c-4.4,0-8,3.6-8,8c0,3.4,2.1,6.3,5.1,7.4v24.9h-8.2v-37.8c3-1.1,5.1-4,5.1-7.4c0-4.4-3.6-8-8-8c-4.4,0-8,3.6-8,8
      c0,3.4,2.1,6.3,5.1,7.4v41.3c15.8,9.6,31.6,19.1,47.4,28.7h33.3c8.8-9.3,17.6-18.6,26.4-27.9c0-17.1,0-34.3,0-51.4L64.6,82.4V44.7
      l14.1-14.9l49.9,52.9c-0.5,1-0.7,2.1-0.7,3.3c0,4.4,3.6,8,8,8c4.4,0,8-3.6,8-8C143.8,81.6,140.3,78,135.9,78 M128.3,55.8
      c2.5,0,4.6,2.1,4.6,4.6c0,2.5-2.1,4.6-4.6,4.6c-2.5,0-4.6-2.1-4.6-4.6C123.7,57.9,125.8,55.8,128.3,55.8 M123.5,32.4
      c2.5,0,4.6,2.1,4.6,4.6s-2.1,4.6-4.6,4.6c-2.5,0-4.6-2.1-4.6-4.6S120.9,32.4,123.5,32.4 M8.7,56c-2.5,0-4.6-2.1-4.6-4.6
      c0-2.5,2.1-4.6,4.6-4.6c2.5,0,4.6,2.1,4.6,4.6C13.3,54,11.2,56,8.7,56 M16.6,81.8c-2.5,0-4.6-2.1-4.6-4.6c0-2.5,2.1-4.6,4.6-4.6
      c2.5,0,4.6,2.1,4.6,4.6C21.2,79.8,19.2,81.8,16.6,81.8 M21.2,105.3c-2.5,0-4.6-2.1-4.6-4.6c0-2.5,2.1-4.6,4.6-4.6s4.6,2.1,4.6,4.6
      C25.8,103.3,23.7,105.3,21.2,105.3 M22.2,154.7c0-2.5,2.1-4.6,4.6-4.6c2.5,0,4.6,2.1,4.6,4.6c0,2.5-2.1,4.6-4.6,4.6
      C24.2,159.3,22.2,157.2,22.2,154.7 M42.5,43v39.7l-9.9-10.5V43.4l29.5-31.3l4.8,5.1C58.7,25.8,50.6,34.4,42.5,43 M50.5,180
      c0-2.5,2.1-4.6,4.6-4.6s4.6,2.1,4.6,4.6c0,2.5-2.1,4.6-4.6,4.6S50.5,182.5,50.5,180 M36,167.6c0-2.5,2.1-4.6,4.6-4.6
      c2.5,0,4.6,2.1,4.6,4.6c0,2.5-2.1,4.6-4.6,4.6C38.1,172.2,36,170.1,36,167.6 M102.2,226.4H72.9l-12.6-7.6h49.1L102.2,226.4z
      M114.7,213.1H50.9l-12.5-7.6h83.4L114.7,213.1z M58.9,42.4c0,14.1,0,28.1,0,42.2l66.4,70.4v44.9h-6.1v-35.8
      C95.5,139,71.8,113.9,48.1,88.8V45.3l22.6-24l4.1,4.3L58.9,42.4z M135.9,90.6c-2.5,0-4.6-2.1-4.6-4.6c0-2.5,2.1-4.6,4.6-4.6
      c2.5,0,4.6,2.1,4.6,4.6C140.5,88.5,138.4,90.6,135.9,90.6"/>
    <path class="st0" d="M254.4,147.1c-4.4,0-8,3.6-8,8c0,1.2,0.3,2.3,0.7,3.3l-49,49l-12.5-12.5v-60.2h16.7c1.1,3.1,4,5.3,7.5,5.3
      c4.4,0,8-3.6,8-8s-3.6-8-8-8c-3.3,0-6.2,2.1-7.4,5h-16.8V121h32.2c1.1,3.1,4,5.3,7.5,5.3c4.4,0,8-3.6,8-8c0-4.4-3.6-8-8-8
      c-3.3,0-6.2,2-7.4,4.9h-32.4v-7.6h48.9c1.1,3,4,5.1,7.4,5.1c4.4,0,8-3.6,8-8c0-4.4-3.6-8-8-8c-3.4,0-6.3,2.1-7.4,5.1h-48.9V87.9
      l11.9-13l-4.2-3.8l-45.5,49.6v77.5c9.9,9.9,19.8,19.8,29.7,29.7c0,0,0,0,0,0l4,4c12.6,0,25.1,0,37.7,0c7.4-7.4,14.7-14.7,22.1-22.1
      c1,0.5,2.1,0.7,3.3,0.7c4.4,0,8-3.6,8-8c0-4.4-3.6-8-8-8c-4.4,0-8,3.6-8,8c0,1.1,0.2,2.2,0.7,3.2L217,226.2h-9.5l38.3-38.3
      c1,0.5,2.2,0.8,3.4,0.8c4.4,0,8-3.6,8-8c0-4.4-3.6-8-8-8c-4.4,0-8,3.6-8,8c0,1.1,0.2,2.1,0.6,3.1l-42.4,42.4h-12.2l2.6-2.6
      c1.3-1.3,2.7-2.7,4-4l57.3-57.3c1,0.4,2.1,0.7,3.3,0.7c4.4,0,8-3.6,8-8C262.4,150.7,258.8,147.1,254.4,147.1 M209.9,127.3
      c2.5,0,4.6,2.1,4.6,4.6c0,2.5-2.1,4.6-4.6,4.6c-2.5,0-4.6-2.1-4.6-4.6C205.3,129.4,207.4,127.3,209.9,127.3 M225.4,113.8
      c2.5,0,4.6,2.1,4.6,4.6c0,2.5-2.1,4.6-4.6,4.6c-2.5,0-4.6-2.1-4.6-4.6C220.8,115.8,222.9,113.8,225.4,113.8 M242,100.4
      c2.5,0,4.6,2.1,4.6,4.6c0,2.5-2.1,4.6-4.6,4.6c-2.5,0-4.6-2.1-4.6-4.6C237.4,102.4,239.5,100.4,242,100.4 M249.2,176.1
      c2.5,0,4.6,2.1,4.6,4.6c0,2.5-2.1,4.6-4.6,4.6c-2.5,0-4.6-2.1-4.6-4.6C244.6,178.2,246.7,176.1,249.2,176.1 M244.8,198
      c2.5,0,4.6,2.1,4.6,4.6c0,2.5-2.1,4.6-4.6,4.6c-2.5,0-4.6-2.1-4.6-4.6C240.2,200,242.2,198,244.8,198 M181.6,223.9l-28-28v-73
      l9.8-10.6v84.9h0l0,0l22.5,22.5L181.6,223.9z M169,194.8v-88.7l11-12v103l14.2,14.2l-4.3,4.3L169,194.8z M254.4,159.7
      c-2.5,0-4.6-2.1-4.6-4.6c0-2.5,2.1-4.6,4.6-4.6c2.5,0,4.6,2.1,4.6,4.6C259,157.6,257,159.7,254.4,159.7"/>
    <path class="st0" d="M151.8,103.1l25.7-28h0.1V75l10.6-11.6l-4.2-3.8l-6.3,6.8V37.7h69.8c1.1,3,4,5.1,7.4,5.1c4.4,0,8-3.6,8-8
      c0-4.4-3.6-8-8-8c-3.4,0-6.3,2.1-7.4,5.1h-90.5l6.7-7.3h62.6c1.1,3,4,5.1,7.4,5.1c4.4,0,8-3.6,8-8s-3.6-8-8-8
      c-3.4,0-6.3,2.1-7.4,5.1h-57.4l7.4-8.1h28.3c1.1,3,4,5.2,7.5,5.2c4.4,0,8-3.6,8-8c0-4.4-3.6-8-8-8c-3.4,0-6.3,2.1-7.4,5.1
      c-10.3,0-20.6,0-30.8,0c-8.8,9.5-17.5,19.1-26.3,28.6c0.1,22.4,0.1,44.8,0.1,67.1v6.5C149.1,106.1,150.4,104.6,151.8,103.1
      M255,30.3c2.5,0,4.6,2.1,4.6,4.6c0,2.5-2.1,4.6-4.6,4.6c-2.5,0-4.6-2.1-4.6-4.6C250.4,32.4,252.4,30.3,255,30.3 M233.7,17.4
      c2.5,0,4.6,2.1,4.6,4.6s-2.1,4.6-4.6,4.6c-2.5,0-4.6-2.1-4.6-4.6S231.2,17.4,233.7,17.4 M212.1,3.7c2.5,0,4.6,2.1,4.6,4.6
      c0,2.5-2.1,4.6-4.6,4.6c-2.5,0-4.6-2.1-4.6-4.6C207.5,5.8,209.6,3.7,212.1,3.7 M153.2,37.7h6.4v48.5l-6.4,7V37.7z M171.9,72.8
      l-6.6,7.2V37.7h6.6V72.8z"/>
    <path class="st0" d="M348.8,186.5c-3.4,0-6.1,2.7-6.1,6.1c0,0.4,0,0.9,0.1,1.3l-15.6,14.7l-6.9-6.9l15.1-14.2
      c0.8,0.4,1.7,0.6,2.7,0.6c3.4,0,6.1-2.7,6.1-6.1s-2.7-6.1-6.1-6.1c-3.4,0-6.1,2.7-6.1,6.1c0,0.3,0,0.6,0.1,0.9l-15.8,14.8l-2.2-2.2
      V89.4c3-1.1,5.1-4,5.1-7.4c0-4.4-3.6-8-8-8c-4.4,0-8,3.6-8,8c0,3.4,2.1,6.3,5.1,7.4v108.2c1.2,1.3,2.5,2.6,3.7,3.9l-4,3.8
      l-10.7-10.6V99.3c3.2-1,5.5-4,5.5-7.6c0-4.4-3.6-8-8-8c-4.4,0-8,3.6-8,8c0,3.3,2,6.1,4.8,7.3v98l12.2,12.1l-4.9,4.6l-17.6-17.5
      v-86.4c3-1.1,5.1-4,5.1-7.4c0-4.4-3.6-8-8-8c-4.4,0-8,3.6-8,8c0,3.4,2.1,6.3,5.1,7.4v88.8c11.3,11.3,22.7,22.6,34,33.9
      c12.2-11.4,24.3-22.9,36.5-34.3c0.7,0.3,1.5,0.5,2.3,0.5c3.4,0,6.1-2.7,6.1-6.1C354.9,189.2,352.2,186.5,348.8,186.5 M338.2,179.2
      c1.5,0,2.7,1.2,2.7,2.7s-1.2,2.7-2.7,2.7s-2.7-1.2-2.7-2.7S336.7,179.2,338.2,179.2 M306.8,81.9c0-2.5,2.1-4.6,4.6-4.6
      c2.5,0,4.6,2.1,4.6,4.6c0,2.5-2.1,4.6-4.6,4.6C308.9,86.5,306.8,84.5,306.8,81.9 M290.5,91.8c0-2.5,2.1-4.6,4.6-4.6
      c2.5,0,4.6,2.1,4.6,4.6c0,2.5-2.1,4.6-4.6,4.6C292.5,96.4,290.5,94.3,290.5,91.8 M316.3,205.5l6.9,6.9l-4,3.8l-6.9-6.9L316.3,205.5
      z M308.1,213.2l6.9,6.9l-4.9,4.6l-6.9-6.9L308.1,213.2z M274.2,102.4c0-2.5,2.1-4.6,4.6-4.6c2.5,0,4.6,2.1,4.6,4.6
      c0,2.5-2.1,4.6-4.6,4.6C276.2,107,274.2,104.9,274.2,102.4 M348.8,195.3c-1.5,0-2.7-1.2-2.7-2.7s1.2-2.7,2.7-2.7
      c1.5,0,2.7,1.2,2.7,2.7S350.3,195.3,348.8,195.3"/>
    <path class="st0" d="M275.6,77.4c1.4-1.3,2.7-2.7,4.1-4l34.8-33.8c0-11.5,0-22.9,0-34.4h-5.7h-7.4h-5.7v28.2h-7.5V21
      c3-1.1,5.1-4,5.1-7.4c0-4.4-3.6-8-8-8c-4.4,0-8,3.6-8,8c0,3.4,2.1,6.3,5.1,7.4v12.4h-1.3h-5.7h-0.1V39h0.1V77.4z M280.8,13.5
      c0-2.5,2.1-4.6,4.6-4.6c2.5,0,4.6,2.1,4.6,4.6c0,2.5-2.1,4.6-4.6,4.6C282.9,18.1,280.8,16.1,280.8,13.5 M308.9,10.8v26.3l-7.4,7.2
		V10.8H308.9z M295.8,39v10.9L281.3,64V39H295.8z"/>
  </g>
</svg>